<?xml version="1.0" encoding="UTF-8" standalone="no"?>
<!-- Generator: Adobe Illustrator 19.2.1, SVG Export Plug-In . SVG Version: 6.00 Build 0)  -->

<svg
   xmlnsDc="http://purl.org/dc/elements/1.1/"
   xmlnsCc="http://creativecommons.org/ns#"
   xmlnsRdf="http://www.w3.org/1999/02/22-rdf-syntax-ns#"
   xmlnsSvg="http://www.w3.org/2000/svg"
   xmlns="http://www.w3.org/2000/svg"
   xmlnsSodipodi="http://sodipodi.sourceforge.net/DTD/sodipodi-0.dtd"
   xmlnsInkscape="http://www.inkscape.org/namespaces/inkscape"
   version="1.1"
   x="0px"
   y="0px"
   viewBox="0 0 20 30.000001"
   enable-background="new 0 0 283.465 283.632"
   xmlSpace="preserve"
   id="svg2"
   inkscapeVersion="0.91 r13725"
   sodipodiDocname="icon-suunta2.svg"
   width="20"
   height="30"><metadata
     id="metadata18"><rdfRDF><ccWork
         rdfAbout=""><dcFormat>image/svg+xml</dcFormat><dcType
           rdfResource="http://purl.org/dc/dcmitype/StillImage" /><dcTitle></dcTitle></ccWork></rdfRDF></metadata><defs
     id="defs16" /><sodipodiNamedview
     pagecolor="#ffffff"
     bordercolor="#666666"
     borderopacity="1"
     objecttolerance="10"
     gridtolerance="10"
     guidetolerance="10"
     inkscapePageopacity="0"
     inkscapePageshadow="2"
     inkscapeWindow-width="1194"
     inkscapeWindow-height="897"
     id="namedview14"
     showgrid="false"
     inkscapeZoom="0.83206412"
     inkscapeCx="141.7325"
     inkscapeCy="286.03565"
     inkscapeWindow-x="20"
     inkscapeWindow-y="43"
     inkscapeWindow-maximized="0"
     inkscapeCurrent-layer="svg2" /><g
     id="bkg"
     display="none"
     style="display:none"
     transform="translate(0,-253.63199)" /><g
     transform="matrix(0.10583318,0,0,0.10583318,-4.4003298,-0.00889517)"
     id="use3346"><g
       id="g3350"><path
         style="fill:#333333"
         inkscapeConnector-curvature="0"
         id="path3352"
         d="m 230.256,94.423 c 0,52.311 -94.339,189.126 -94.339,189.126 0,0 -94.339,-136.815 -94.339,-189.126 0,-51.864 42.028,-94.339 94.339,-94.339 52.311,0 94.339,42.475 94.339,94.339 z" /></g><g
       id="g3354"><path
         style="fill:#ffffff"
         inkscapeConnector-curvature="0"
         id="path3356"
         d="m 103.928,122.937 27.859,-22.819 c 12.181,-9.94 16.94,-15.4 16.94,-23.521 0,-8.26 -5.46,-12.74 -13.16,-12.74 -6.16,0 -10.5,2.66 -15.96,8.54 -1.4,1.54 -3.92,3.08 -7.28,3.08 -5.46,0 -9.8,-4.34 -9.8,-9.8 0,-2.38 0.98,-4.899 2.521,-6.72 7.84,-9.1 17.08,-14.42 31.92,-14.42 20.3,0 33.739,11.899 33.739,30.239 l 0,0.28 c 0,16.38 -8.399,24.5 -25.76,37.94 l -15.96,12.319 34.16,0 c 5.18,0 9.38,4.2 9.38,9.38 0,5.181 -4.2,9.24 -9.38,9.24 l -53.2,0 c -6.72,0 -11.62,-3.78 -11.62,-10.22 0.001,-4.198 1.96,-7.838 5.601,-10.778 z" /></g></g></svg>