<?xml version="1.0" encoding="utf-8"?>
<!-- Generator: Adobe Illustrator 26.0.3, SVG Export Plug-In . SVG Version: 6.00 Build 0)  -->
<svg version="1.1" xmlns="http://www.w3.org/2000/svg" xmlns:xlink="http://www.w3.org/1999/xlink" x="0px" y="0px"
	 viewBox="0 0 283.46 283.46" style="enable-background:new 0 0 283.46 283.46;" xml:space="preserve">
<style type="text/css">
	.st0{fill:#0087CD;}
	.st1{fill:#FFFFFF;}
	.st2{clip-path:url(#SVGID_00000107578122421532336490000006455158320934176418_);fill:#FFFFFF;}
</style>
<g id="Layer_1">
	<g>
		<path class="st0" d="M0,248.03c0,19.49,15.94,35.43,35.43,35.43h212.6c19.49,0,35.43-15.95,35.43-35.43V35.43
			C283.46,15.94,267.52,0,248.03,0H35.43C15.94,0,0,15.94,0,35.43V248.03z"/>
	</g>
</g>
<g id="Layer_2">
	<polygon class="st1" points="28.93,74.55 50.41,74.55 69.79,168.98 90.88,74.36 109.12,74.36 130.21,168.98 149.59,74.55 
		170.68,74.55 140.47,208.31 120.71,208.31 99.81,116.16 78.72,208.31 59.14,208.31 	"/>
	<g>
		<defs>
			<rect id="SVGID_1_" x="-0.45" y="0" width="283.46" height="283.46"/>
		</defs>
		<clipPath id="SVGID_00000050656141826620777820000008003002165015428737_">
			<use xlink:href="#SVGID_1_"  style="overflow:visible;"/>
		</clipPath>
		<path style="clip-path:url(#SVGID_00000050656141826620777820000008003002165015428737_);fill:#FFFFFF;" d="M178.46,142.38v-2.66
			c0-43.13,21.28-66.69,49.02-66.69c13.11,0,22.61,4.94,30.21,12.16l-11.59,16.34c-5.32-5.13-11.4-8.93-18.81-8.93
			c-15.58,0-27.93,17.1-27.93,47.88v0.95c0,32.3,12.92,48.07,27.55,48.07c7.98,0,14.06-3.8,20.14-9.88l11.02,15.77
			c-9.12,8.74-19.57,13.68-31.92,13.68C197.65,209.07,178.46,185.7,178.46,142.38"/>
	</g>
</g>
</svg>
